<svg width="14" height="15" viewBox="0 0 14 15" fill="none" xmlns="http://www.w3.org/2000/svg">
<path d="M6.16665 14.1666C5.93054 14.1666 5.73262 14.0868 5.5729 13.9271C5.41318 13.7673 5.33332 13.5694 5.33332 13.3333V8.33331L0.499986 2.16665C0.291652 1.88887 0.260402 1.5972 0.406236 1.29165C0.552069 0.986091 0.805541 0.833313 1.16665 0.833313H12.8333C13.1944 0.833313 13.4479 0.986091 13.5937 1.29165C13.7396 1.5972 13.7083 1.88887 13.5 2.16665L8.66665 8.33331V13.3333C8.66665 13.5694 8.58679 13.7673 8.42707 13.9271C8.26735 14.0868 8.06943 14.1666 7.83332 14.1666H6.16665ZM6.99998 7.74998L11.125 2.49998H2.87499L6.99998 7.74998Z" fill="#4B2800"/>
</svg>
