<svg width="208" height="88" viewBox="0 0 208 88" fill="none" xmlns="http://www.w3.org/2000/svg">
<path d="M89.3177 3.96448C67.9451 3.96448 50.5741 21.8345 50.5741 43.9362C50.5741 66.0379 67.9451 83.908 89.3177 83.908C93.9467 83.908 98.3878 83.0695 102.506 81.5315C87.8013 75.8539 77.3256 61.15 77.3256 43.904C77.3256 26.6915 87.7607 12.01 102.42 6.30865C98.3265 4.7908 93.9149 3.96448 89.3177 3.96448Z" stroke="#FFB56D" stroke-width="7"/>
<mask id="mask0_62806_805" style="mask-type:luminance" maskUnits="userSpaceOnUse" x="74" y="11" width="81" height="66">
<path d="M154.907 11.3097H74.4628V76.1706H154.907V11.3097Z" fill="white"/>
</mask>
<g mask="url(#mask0_62806_805)">
<mask id="mask1_62806_805" style="mask-type:luminance" maskUnits="userSpaceOnUse" x="84" y="11" width="66" height="66">
<path d="M117.217 76.5147C135.044 76.5147 149.495 61.9951 149.495 44.0843C149.495 26.1734 135.044 11.6538 117.217 11.6538C99.3909 11.6538 84.9401 26.1734 84.9401 44.0843C84.9401 61.9951 99.3909 76.5147 117.217 76.5147Z" fill="white"/>
</mask>
<g mask="url(#mask1_62806_805)">
<path d="M84.9561 68.8796C84.9468 66.2317 84.5433 58.8992 85.6258 60.3972C86.8582 62.1021 88.4586 64.4672 89.8944 65.9642C91.692 67.8385 93.3897 69.0485 95.7803 70.6297C97.5383 71.7925 98.6553 72.3854 101.242 73.0677C103.397 73.6365 105.955 73.6652 108.156 73.5487C110.634 73.4178 113.344 73.4491 115.717 73.3362C118.311 73.2124 121.146 72.2052 123.565 71.3407C125.804 70.5409 127.608 69.4048 129.563 67.8724C131.511 66.3446 133.193 65.094 134.581 62.9826C135.663 61.3377 137.27 59.7555 136.76 57.7287C134.59 58.1815 131.956 57.6774 130.27 56.1358C128.28 54.3149 128.284 50.9615 130.463 49.5313C132.017 48.5112 134.868 48.772 134.942 51.6936C132.076 50.459 132.153 54.0382 134.319 53.8482C136.666 53.6418 136.155 50.5991 135.651 48.8311C135.063 46.7678 132.596 45.7724 130.665 46.3859C128.551 47.0574 126.069 47.0908 124.001 46.3582C122.246 45.737 120.533 45.0481 118.898 44.0362C116.677 42.6619 114.899 41.6865 113.078 38.9749C111.877 37.1879 111.159 35.2889 110.567 33.1205C109.84 30.4633 106.189 30.6722 105.585 33.717C105.136 35.9856 105.293 38.4939 106.851 39.9945C108.255 41.3477 109.541 42.3503 110.078 44.2313C110.359 45.2164 110.388 46.1307 109.841 47.331C109.204 48.7315 108.063 49.73 107.195 50.8542C105.772 52.6972 106.4 55.3005 106.678 57.4223C106.914 59.2309 109.661 59.446 107.902 61.9055C106.822 63.4164 105.543 64.5427 103.378 63.0113C102.459 62.3604 103.187 60.9481 102.647 60.0892C101.576 58.3843 102.842 60.8957 102.785 54.2106C102.773 52.7871 101.197 51.8743 100.102 51.6823C97.9166 53.4242 103.696 54.5151 100.437 55.5921C98.8417 56.1199 99.8517 59.3269 100.666 60.5456C101.303 61.4999 99.5835 60.7109 101.084 63.8476C102.127 66.0279 99.9346 65.4293 98.1092 65.0376C96.6081 64.7157 94.2864 64.9744 93.8571 62.4415C93.4726 60.1755 92.7591 57.95 93.1565 55.6347C93.5436 53.3764 92.1758 51.7968 90.8611 50.0334C89.5948 48.3357 88.5971 46.5307 87.6566 44.5691C86.6528 42.4761 85.928 41.476 85.5404 38.8753C84.8562 34.2848 86.3275 32.1728 85.5893 34.5805C84.2339 38.9996 84.6406 32.1543 86.5669 34.7063C88.7073 37.5421 86.9437 31.4515 85.8194 30.3062C85.1265 29.6003 84.6658 25.652 84.8403 23.2864C85.1569 18.9854 83.6131 11.5606 87.6999 11.5606C88.5472 11.5606 87.497 11.501 87.497 11.501C86.3784 12.4554 87.0147 14.7835 87.9907 15.9227C88.8041 16.8719 89.8012 14.5515 90.3196 13.9991C91.4866 12.7547 92.3112 10.9076 93.7578 11.501C94.2864 11.7182 93.3598 13.8276 95.2604 12.7542C98.2374 11.0729 100.171 10.6242 98.2775 13.2958C97.2232 14.782 94.8033 16.9663 95.5265 18.7046C96.9962 17.4125 98.679 15.7486 100.363 14.3605C102.168 12.8727 103.704 11.5015 106.353 11.5015C107.478 11.501 109.862 11.4682 109.729 11.501C108.591 11.787 109.302 15.3015 110.614 14.8584C112.008 14.3877 112.392 12.9811 113.429 11.6504C113.775 11.2064 114.961 11.4594 115.652 11.501C116.934 11.5785 117.067 11.1648 117.611 12.0293C118.39 13.2639 118.664 15.265 116.272 16.6783C115.307 17.2487 115.024 17.8278 115.52 18.7179C116.445 20.3777 116.49 22.4553 116.091 24.3814C115.615 26.6767 114.955 27.8857 117.117 31.3134C117.547 31.9952 122.913 37.3753 116.825 33.3638C115.054 32.1969 113.935 30.4833 113.145 28.5833C112.46 26.937 111.522 25.2315 111.947 23.4589C112.214 22.3444 111.281 21.849 110.694 21.0846C109.864 21.3726 108.874 21.4978 108.764 22.7874C108.624 24.4374 108.465 26.5586 109.689 27.4093C111.456 28.6372 111.926 30.7369 113.254 32.0963C114.62 33.4942 117.613 34.2227 117.358 36.1755C117.139 37.8568 118.731 38.1587 119.995 38.4877C121.795 38.9564 122.364 39.1325 124.38 39.3646C126.72 39.6341 128.963 40.1141 131.201 39.7835C133.894 39.3861 135.945 38.1489 138.184 36.8922C140.129 35.8003 140.992 33.679 141.839 31.7559C142.67 29.8734 142.812 27.7347 142.698 25.6751C142.567 23.3249 141.575 21.0815 140.165 19.1769C138.196 16.5182 134.753 16.0787 131.619 15.552C129.113 15.131 126.718 16.263 125.046 18.1676C123.324 20.1287 121.031 22.1544 122.264 25.3522C123.092 27.5022 123.133 29.606 125.174 31.3761C126.216 32.2816 127.482 33.1913 128.762 33.3587C130.409 33.5743 132.176 33.4357 133.739 32.5912C135.638 31.5655 136.995 29.7646 137.313 27.3297C137.605 25.0868 136.347 22.3151 134.414 21.7535C132.316 21.1446 129.528 20.64 128.23 22.9958C127.821 23.7392 127.519 24.1576 127.514 25.0103C127.502 27.1387 129.824 28.0135 129.41 26.6921C128.58 24.0405 132.033 23.4794 133.236 25.3599C134.531 27.3846 133.458 29.3765 131.447 30.2189C129.355 31.0947 126.856 29.6131 125.913 27.6151C124.999 25.6766 125.151 23.2253 126.732 21.1944C128.162 19.3566 130.34 18.4531 132.673 18.6846C135.291 18.9449 136.641 19.6122 138.003 21.1503C140.27 23.712 140.466 25.8337 139.909 28.8308C139.501 31.027 138.028 32.9572 135.46 34.7242C133.815 35.8567 129.485 36.6042 126.79 35.4758C124.648 34.5795 123.055 32.7206 121.72 30.9125C119.451 27.8384 118.698 23.2258 119.715 20.0424C120.392 17.9243 121.944 16.0048 123.684 14.2111C125.298 12.5473 127.509 11.7577 129.995 11.6915C132.312 11.6289 135.498 11.7341 137.489 13.0699C139.55 14.4529 141.918 15.9114 143.279 18.0644C143.964 19.1492 145.93 19.4721 144.791 16.8673C143.923 14.8805 139.057 12.595 140.996 11.7577C142.343 11.1761 144.583 11.4384 146.134 11.4384C147.088 11.4384 149.184 11.2977 149.183 12.2557L149.141 76.1525C147.53 76.1427 144.56 77.7116 144.308 76.1124C143.996 74.1319 144.189 70.8566 143.53 69.7102C141.726 71.0779 140.321 72.7725 139.409 74.8727C138.436 77.113 132.541 75.8799 131.612 76.212C129.434 76.267 125.004 76.2331 127.869 75.6422C130.2 75.1617 131.916 73.0163 133.922 71.6302C135.769 70.354 137.263 68.5716 138.446 66.6937C139.626 64.8214 140.513 62.461 140.063 60.2607C138.949 61.4209 137.811 63.3686 136.771 64.9036C135.229 67.1814 132.676 69.3319 131.301 70.4854C129.671 71.8535 128.259 73.1888 125.964 74.214C123.695 75.2274 122.278 75.7808 120.054 76.1186C108.355 76.1833 96.6554 76.1407 84.9561 76.1525V68.8796ZM96.3157 62.6915C94.4254 60.2905 95.6758 63.7803 96.6549 63.6581L96.3157 62.6915ZM146.889 49.7346C147.126 47.8218 147.608 45.5512 145.793 44.2385C145.283 45.0229 144.235 45.4244 144.755 46.9773C145.223 48.3731 145.674 49.6715 146.761 50.7772C146.912 50.4497 146.869 50.0821 146.889 49.7346ZM94.6082 45.9459C94.654 43.7046 94.0707 40.0704 92.0904 39.8671C90.1214 39.6654 91.8865 43.0449 92.528 44.2565C93.0474 45.237 94.6082 48.8526 94.6082 47.2509V45.9459ZM106.771 18.9361C106.771 17.2975 106.646 10.8147 105.277 13.7455C104.557 15.2866 104.366 19.4392 106.096 19.5506C106.46 19.5742 106.711 19.2688 106.771 18.9361ZM101.335 18.4033C100.842 18.2128 101.283 21.8695 101.335 18.4033V18.4033Z" fill="#6DB5FF"/>
</g>
</g>
<path d="M204.774 3.5C205.208 3.50008 205.502 3.64718 205.718 3.92285C205.954 4.22342 206.135 4.72606 206.202 5.49902L207.165 24.8086L207.166 24.8252L207.168 24.8418C207.233 25.3916 207.143 25.6886 207.027 25.8408C206.923 25.9752 206.719 26.0986 206.273 26.0986C205.937 26.0986 205.73 26.0099 205.595 25.8848C205.472 25.7707 205.36 25.582 205.293 25.2734L205.268 25.1338L204.732 21.6113C204.008 16.4978 202.336 12.7008 199.644 10.3145C197.008 7.97789 194.253 6.77148 191.389 6.77148C190.688 6.7715 190.084 6.8262 189.586 6.94531C189.094 7.06323 188.664 7.2539 188.36 7.55762C187.792 8.12375 187.57 9.00037 187.57 10.0479V74.1162C187.57 75.6307 187.816 76.8266 188.444 77.542L188.465 77.5674L188.49 77.5889C189.169 78.1818 190.249 78.5565 191.633 78.7744H191.634L196.452 79.5215L196.471 79.5244L196.49 79.5264C196.893 79.5574 197.115 79.6607 197.234 79.7695C197.339 79.8664 197.42 80.0211 197.42 80.3086C197.42 80.5732 197.338 80.7023 197.224 80.7861C197.08 80.8913 196.804 80.9834 196.315 80.9834H172.223C171.734 80.9834 171.457 80.8913 171.314 80.7861C171.199 80.7023 171.116 80.5732 171.116 80.3086C171.116 80.0213 171.198 79.8663 171.303 79.7695C171.421 79.6607 171.644 79.5574 172.047 79.5264L172.067 79.5244L172.085 79.5215L176.904 78.7744L176.903 78.7734C178.344 78.5577 179.45 78.1862 180.071 77.5664L180.083 77.5547L180.094 77.542C180.721 76.8268 180.968 75.631 180.968 74.1162V10.0479C180.968 9.00037 180.746 8.12375 180.178 7.55762C179.873 7.2539 179.444 7.06323 178.951 6.94531C178.454 6.82622 177.849 6.7715 177.149 6.77148C174.352 6.77148 171.633 7.98051 169 10.3145C166.31 12.6994 164.6 16.495 163.806 21.6094L163.805 21.6113L163.27 25.1338C163.209 25.5265 163.083 25.7544 162.943 25.8848C162.807 26.01 162.601 26.0986 162.265 26.0986C161.819 26.0986 161.614 25.9752 161.511 25.8408C161.394 25.6887 161.304 25.3915 161.369 24.8418L161.371 24.8252L161.372 24.8086L162.335 5.49902C162.402 4.72621 162.583 4.22341 162.819 3.92285C163.035 3.64723 163.329 3.50006 163.764 3.5C164.162 3.5 164.53 3.61183 164.879 3.84375L164.905 3.86035L164.933 3.875C165.405 4.11065 166.157 4.36939 167.16 4.65527L167.169 4.6582C168.306 4.96072 170.038 5.10156 172.33 5.10156H196.207C198.489 5.10156 200.188 4.9608 201.26 4.65723L201.261 4.6582C202.333 4.37295 203.127 4.11331 203.605 3.875L203.617 3.86816L203.629 3.86133C204.078 3.60543 204.457 3.5 204.774 3.5Z" fill="#FFB56D" stroke="#FFB56D"/>
<path d="M2.6061 81.4837C1.53537 81.4837 1 81.092 1 80.3092C1 79.6685 1.46382 79.2414 2.39196 79.0278L4.85465 78.6007C6.35368 78.3158 7.31734 77.9246 7.74564 77.4261C8.24548 76.9276 8.49515 75.9312 8.49515 74.4362V11.6493C8.49515 10.1544 8.24548 9.15794 7.74564 8.65946C7.31734 8.16098 6.35368 7.7698 4.85465 7.48488L2.39196 7.05776C1.46382 6.84419 1 6.41707 1 5.77639C1 4.9935 1.53537 4.60181 2.6061 4.60181H22.2006C23.2713 4.60181 23.8067 5.02892 23.8067 5.88317C23.8067 6.52385 23.4139 6.91555 22.6289 7.05776L19.7379 7.48488C18.2388 7.69844 17.2397 8.09014 16.7398 8.65946C16.3115 9.22879 16.0974 10.2612 16.0974 11.7561V71.5532C16.0974 74.1159 16.8114 75.9666 18.2388 77.1057C19.7379 78.2449 21.5936 78.8142 23.8067 78.8142C25.4483 78.8142 27.1259 78.4939 28.8391 77.8532C30.6239 77.1412 32.23 75.8598 33.6574 74.0091C35.0849 72.0871 36.1557 69.3108 36.8696 65.6802L38.2616 58.5259C38.4757 57.6003 39.0111 57.1378 39.8677 57.1378C40.8669 57.1378 41.2952 57.7431 41.1526 58.9531L39.8677 79.0278C39.7251 80.6649 38.8325 81.4837 37.1909 81.4837H2.6061Z" fill="#FFB56D" stroke="#FFB56D"/>
<path d="M117.119 84C139.257 84 157.204 66.1027 157.204 44.0251C157.204 21.9476 139.257 4.05017 117.119 4.05017C94.9809 4.05017 77.0344 21.9476 77.0344 44.0251C77.0344 66.1027 94.9809 84 117.119 84Z" stroke="#FFB56D" stroke-width="7"/>
</svg>
