<svg width="210" height="137" viewBox="0 0 210 137" fill="none" xmlns="http://www.w3.org/2000/svg">
<g clip-path="url(#clip0_2831_2626)">
<mask id="mask0_2831_2626" style="mask-type:luminance" maskUnits="userSpaceOnUse" x="73" y="11" width="81" height="66">
<path d="M153.907 11.3096H73.4629V76.1705H153.907V11.3096Z" fill="white"/>
</mask>
<g mask="url(#mask0_2831_2626)">
<mask id="mask1_2831_2626" style="mask-type:luminance" maskUnits="userSpaceOnUse" x="83" y="11" width="66" height="66">
<path d="M116.217 76.5147C134.044 76.5147 148.495 61.9951 148.495 44.0843C148.495 26.1734 134.044 11.6538 116.217 11.6538C98.3912 11.6538 83.9404 26.1734 83.9404 44.0843C83.9404 61.9951 98.3912 76.5147 116.217 76.5147Z" fill="white"/>
</mask>
<g mask="url(#mask1_2831_2626)">
<path d="M83.9561 68.8796C83.9468 66.2317 83.5433 58.8992 84.6258 60.3972C85.8582 62.1021 87.4586 64.4672 88.8944 65.9642C90.692 67.8385 92.3897 69.0485 94.7803 70.6297C96.5383 71.7925 97.6553 72.3854 100.242 73.0677C102.397 73.6365 104.955 73.6652 107.156 73.5487C109.634 73.4178 112.344 73.4491 114.717 73.3362C117.311 73.2124 120.146 72.2052 122.565 71.3407C124.804 70.5409 126.608 69.4048 128.563 67.8724C130.511 66.3446 132.193 65.094 133.581 62.9826C134.663 61.3377 136.27 59.7555 135.76 57.7287C133.59 58.1815 130.956 57.6774 129.27 56.1358C127.28 54.3149 127.284 50.9615 129.463 49.5313C131.017 48.5112 133.868 48.772 133.942 51.6936C131.076 50.459 131.153 54.0382 133.319 53.8482C135.666 53.6418 135.155 50.5991 134.651 48.8311C134.063 46.7678 131.596 45.7724 129.665 46.3859C127.551 47.0574 125.069 47.0908 123.001 46.3582C121.246 45.737 119.533 45.0481 117.898 44.0362C115.677 42.6619 113.899 41.6865 112.078 38.9749C110.877 37.1879 110.159 35.2889 109.567 33.1205C108.84 30.4633 105.189 30.6722 104.585 33.717C104.136 35.9856 104.293 38.4939 105.851 39.9945C107.255 41.3477 108.541 42.3503 109.078 44.2313C109.359 45.2164 109.388 46.1307 108.841 47.331C108.204 48.7315 107.063 49.73 106.195 50.8542C104.772 52.6972 105.4 55.3005 105.678 57.4223C105.914 59.2309 108.661 59.446 106.902 61.9055C105.822 63.4164 104.543 64.5427 102.378 63.0113C101.459 62.3604 102.187 60.9481 101.647 60.0892C100.576 58.3843 101.842 60.8957 101.785 54.2106C101.773 52.7871 100.197 51.8743 99.102 51.6823C96.9166 53.4242 102.696 54.5151 99.437 55.5921C97.8417 56.1199 98.8517 59.3269 99.666 60.5456C100.303 61.4999 98.5835 60.7109 100.084 63.8476C101.127 66.0279 98.9346 65.4293 97.1092 65.0376C95.6081 64.7157 93.2864 64.9744 92.8571 62.4415C92.4726 60.1755 91.7591 57.95 92.1565 55.6347C92.5436 53.3764 91.1758 51.7968 89.8611 50.0334C88.5948 48.3357 87.5971 46.5307 86.6566 44.5691C85.6528 42.4761 84.928 41.476 84.5404 38.8753C83.8562 34.2848 85.3275 32.1728 84.5893 34.5805C83.2339 38.9996 83.6406 32.1543 85.5669 34.7063C87.7073 37.5421 85.9437 31.4515 84.8194 30.3062C84.1265 29.6003 83.6658 25.652 83.8403 23.2864C84.1569 18.9854 82.6131 11.5606 86.6999 11.5606C87.5472 11.5606 86.497 11.501 86.497 11.501C85.3784 12.4554 86.0147 14.7835 86.9907 15.9227C87.8041 16.8719 88.8012 14.5515 89.3196 13.9991C90.4866 12.7547 91.3112 10.9076 92.7578 11.501C93.2864 11.7182 92.3598 13.8276 94.2604 12.7542C97.2374 11.0729 99.171 10.6242 97.2775 13.2958C96.2232 14.782 93.8033 16.9663 94.5265 18.7046C95.9962 17.4125 97.679 15.7486 99.363 14.3605C101.168 12.8727 102.704 11.5015 105.353 11.5015C106.478 11.501 108.862 11.4682 108.729 11.501C107.591 11.787 108.302 15.3015 109.614 14.8584C111.008 14.3877 111.392 12.9811 112.429 11.6504C112.775 11.2064 113.961 11.4594 114.652 11.501C115.934 11.5785 116.067 11.1648 116.611 12.0293C117.39 13.2639 117.664 15.265 115.272 16.6783C114.307 17.2487 114.024 17.8278 114.52 18.7179C115.445 20.3777 115.49 22.4553 115.091 24.3814C114.615 26.6767 113.955 27.8857 116.117 31.3134C116.547 31.9952 121.913 37.3753 115.825 33.3638C114.054 32.1969 112.935 30.4833 112.145 28.5833C111.46 26.937 110.522 25.2315 110.947 23.4589C111.214 22.3444 110.281 21.849 109.694 21.0846C108.864 21.3726 107.874 21.4978 107.764 22.7874C107.624 24.4374 107.465 26.5586 108.689 27.4093C110.456 28.6372 110.926 30.7369 112.254 32.0963C113.62 33.4942 116.613 34.2227 116.358 36.1755C116.139 37.8568 117.731 38.1587 118.995 38.4877C120.795 38.9564 121.364 39.1325 123.38 39.3646C125.72 39.6341 127.963 40.1141 130.201 39.7835C132.894 39.3861 134.945 38.1489 137.184 36.8922C139.129 35.8003 139.992 33.679 140.839 31.7559C141.67 29.8734 141.812 27.7347 141.698 25.6751C141.567 23.3249 140.575 21.0815 139.165 19.1769C137.196 16.5182 133.753 16.0787 130.619 15.552C128.113 15.131 125.718 16.263 124.046 18.1676C122.324 20.1287 120.031 22.1544 121.264 25.3522C122.092 27.5022 122.133 29.606 124.174 31.3761C125.216 32.2816 126.482 33.1913 127.762 33.3587C129.409 33.5743 131.176 33.4357 132.739 32.5912C134.638 31.5655 135.995 29.7646 136.313 27.3297C136.605 25.0868 135.347 22.3151 133.414 21.7535C131.316 21.1446 128.528 20.64 127.23 22.9958C126.821 23.7392 126.519 24.1576 126.514 25.0103C126.502 27.1387 128.824 28.0135 128.41 26.6921C127.58 24.0405 131.033 23.4794 132.236 25.3599C133.531 27.3846 132.458 29.3765 130.447 30.2189C128.355 31.0947 125.856 29.6131 124.913 27.6151C123.999 25.6766 124.151 23.2253 125.732 21.1944C127.162 19.3566 129.34 18.4531 131.673 18.6846C134.291 18.9449 135.641 19.6122 137.003 21.1503C139.27 23.712 139.466 25.8337 138.909 28.8308C138.501 31.027 137.028 32.9572 134.46 34.7242C132.815 35.8567 128.485 36.6042 125.79 35.4758C123.648 34.5795 122.055 32.7206 120.72 30.9125C118.451 27.8384 117.698 23.2258 118.715 20.0424C119.392 17.9243 120.944 16.0048 122.684 14.2111C124.298 12.5473 126.509 11.7577 128.995 11.6915C131.312 11.6289 134.498 11.7341 136.489 13.0699C138.55 14.4529 140.918 15.9114 142.279 18.0644C142.964 19.1492 144.93 19.4721 143.791 16.8673C142.923 14.8805 138.057 12.595 139.996 11.7577C141.343 11.1761 143.583 11.4384 145.134 11.4384C146.088 11.4384 148.184 11.2977 148.183 12.2557L148.141 76.1525C146.53 76.1427 143.56 77.7116 143.308 76.1124C142.996 74.1319 143.189 70.8566 142.53 69.7102C140.726 71.0779 139.321 72.7725 138.409 74.8727C137.436 77.113 131.541 75.8799 130.612 76.212C128.434 76.267 124.004 76.2331 126.869 75.6422C129.2 75.1617 130.916 73.0163 132.922 71.6302C134.769 70.354 136.263 68.5716 137.446 66.6937C138.626 64.8214 139.513 62.461 139.063 60.2607C137.949 61.4209 136.811 63.3686 135.771 64.9036C134.229 67.1814 131.676 69.3319 130.301 70.4854C128.671 71.8535 127.259 73.1888 124.964 74.214C122.695 75.2274 121.278 75.7808 119.054 76.1186C107.355 76.1833 95.6554 76.1407 83.9561 76.1525V68.8796ZM95.3157 62.6915C93.4254 60.2905 94.6758 63.7803 95.6549 63.6581L95.3157 62.6915ZM145.889 49.7346C146.126 47.8218 146.608 45.5512 144.793 44.2385C144.283 45.0229 143.235 45.4244 143.755 46.9773C144.223 48.3731 144.674 49.6715 145.761 50.7772C145.912 50.4497 145.869 50.0821 145.889 49.7346ZM93.6082 45.9459C93.654 43.7046 93.0707 40.0704 91.0904 39.8671C89.1214 39.6654 90.8865 43.0449 91.528 44.2565C92.0474 45.237 93.6082 48.8526 93.6082 47.2509V45.9459ZM105.771 18.9361C105.771 17.2975 105.646 10.8147 104.277 13.7455C103.557 15.2866 103.366 19.4392 105.096 19.5506C105.46 19.5742 105.711 19.2688 105.771 18.9361ZM100.335 18.4033C100.283 21.8695 99.842 18.2128 100.335 18.4033Z" fill="#6DB5FF"/>
</g>
</g>
<path d="M189.07 74.1162C189.07 75.517 189.29 76.5115 189.729 77.0996C190.413 77.9452 191.705 78.1219 192.711 78.2803L197.536 79.0283C197.87 79.076 198.198 79.1202 198.479 79.3252C198.783 79.5755 198.921 79.9132 198.921 80.3086C198.921 80.6495 198.802 80.9823 198.52 81.1895C198.253 81.3849 197.851 81.4834 197.315 81.4834H173.223C172.689 81.4834 172.287 81.3857 172.019 81.1895C171.735 80.9823 171.616 80.6514 171.616 80.3086C171.616 79.9147 171.735 79.6141 171.964 79.4023C172.28 79.1112 172.635 79.1519 173.008 79.0273L176.848 78.4316L176.843 78.4268C178.126 78.2348 179.753 78.1745 180.717 77.2129L180.72 77.21C181.218 76.64 181.468 75.6083 181.468 74.1162V10.0479C181.468 9.05114 181.253 8.33909 180.825 7.91211C180.637 7.72528 180.362 7.57866 179.997 7.47363L179.835 7.43164C179.389 7.32493 178.827 7.2715 178.149 7.27148C175.507 7.2715 172.901 8.41063 170.332 10.6885C167.199 13.4656 165.9 17.7645 165.288 21.7695L164.764 25.209V25.2109C164.692 25.6737 164.532 26.0202 164.284 26.251L164.282 26.2529C164.032 26.4825 163.695 26.5986 163.265 26.5986C162.728 26.5986 162.345 26.4458 162.114 26.1445L162.115 26.1436C161.883 25.8416 161.801 25.3886 161.873 24.7832V24.7783L162.836 5.47363L162.837 5.46484V5.45605C162.899 4.737 163.067 4.02252 163.551 3.4707C163.929 3.08653 164.433 2.98778 164.95 3.00684C165.376 3.0378 166.146 3.42188 166.146 3.42188C166.146 3.42188 167.23 3.85226 167.601 3.96777L168.297 4.1748C169.368 4.45966 171.045 4.60155 173.33 4.60156H197.207C198.948 4.60156 200.714 4.56162 202.402 4.09961C203.33 3.84497 203.99 3.62187 204.381 3.42676C204.881 3.14187 205.346 3.00001 205.774 3C206.299 3.02463 206.775 3.1847 207.112 3.61426C207.393 3.97235 207.578 4.48681 207.668 5.1582L208.665 24.7832C208.706 25.2452 208.72 25.7553 208.424 26.1436L208.423 26.1465C208.191 26.4451 207.812 26.5986 207.273 26.5986C206.845 26.5986 206.505 26.4828 206.256 26.252C205.965 25.9827 205.833 25.5914 205.774 25.209L205.237 21.6816C204.522 16.6301 202.881 12.9655 200.312 10.6885C197.743 8.4108 195.101 7.27153 192.389 7.27148C191.711 7.2715 191.149 7.3249 190.703 7.43164C190.257 7.53849 189.927 7.69832 189.714 7.91113C189.285 8.33811 189.07 9.05111 189.07 10.0479V74.1162Z" fill="#FFB56D"/>
<path d="M40.8682 56.6382C41.4683 56.6383 42.0082 56.825 42.3467 57.3032C42.6658 57.7543 42.7264 58.3586 42.6494 59.0122L41.3662 79.0601V79.0718C41.2879 79.9697 40.9965 80.7187 40.4297 81.2388C39.8627 81.7589 39.0912 81.9839 38.1904 81.9839H3.60645C3.02501 81.9839 2.49799 81.8805 2.10645 81.5942C1.68576 81.2866 1.5 80.8273 1.5 80.3091C1.50009 79.8519 1.67249 79.4509 2.00879 79.1411C2.32913 78.8462 2.77141 78.6576 3.28027 78.5405L3.29297 78.5376L3.30664 78.5356L5.76953 78.1079C6.49628 77.9694 7.0747 77.8087 7.51367 77.6304C7.96029 77.4489 8.22559 77.2638 8.36621 77.1001L8.37891 77.0854L8.39258 77.0728C8.55541 76.9104 8.71096 76.631 8.82324 76.1831C8.93471 75.7382 8.99512 75.1591 8.99512 74.436V11.6499C8.99512 10.9268 8.93472 10.3478 8.82324 9.90283C8.71101 9.45508 8.55532 9.17657 8.39258 9.01416L8.37891 9.00049L8.36621 8.98584C8.22559 8.82217 7.96032 8.63701 7.51367 8.45557C7.07466 8.27724 6.49638 8.11558 5.76953 7.97705L3.30664 7.55029L3.29297 7.54834L3.28027 7.54541C2.7714 7.42832 2.32913 7.24072 2.00879 6.9458C1.67218 6.63589 1.50006 6.2343 1.5 5.77686C1.5 5.25858 1.68575 4.79939 2.10645 4.4917C2.49799 4.20546 3.02504 4.10205 3.60645 4.10205H23.2002C23.7887 4.10205 24.3228 4.21745 24.7168 4.53174C25.1323 4.86322 25.3066 5.34538 25.3066 5.8833C25.3066 6.31406 25.1702 6.707 24.8652 7.01123C24.5718 7.30388 24.1683 7.46868 23.7178 7.55029L23.7021 7.55225L20.8105 7.97998H20.8086C19.3458 8.18836 18.51 8.55547 18.1299 8.97412C17.8132 9.4073 17.5977 10.2879 17.5977 11.7563V71.5532C17.5977 74.0245 18.2827 75.6997 19.5449 76.7104C20.9418 77.7707 22.6847 78.314 24.8066 78.314C26.3808 78.314 27.9979 78.0074 29.6602 77.3862C31.3429 76.7134 32.879 75.4964 34.2617 73.7036C35.6245 71.8652 36.6733 69.172 37.3789 65.5835L38.7744 58.4136C38.8973 57.8824 39.1257 57.4278 39.4971 57.1069C39.8738 56.7814 40.3463 56.6382 40.8682 56.6382Z" fill="#FFB56D"/>
<path d="M72.5342 44.0249C72.5343 28.9006 80.2764 15.5877 92.0166 7.80029C91.0589 7.71951 90.0897 7.67725 89.1113 7.67725C69.7712 7.67749 53.8682 23.8796 53.8682 44.1489C53.8683 64.4181 69.7713 80.6204 89.1113 80.6206C90.1828 80.6206 91.2585 80.5618 92.3291 80.4536C80.4143 72.6961 72.5342 59.2828 72.5342 44.0249ZM79.5342 44.0249C79.5342 64.1604 95.905 80.5004 116.119 80.5005C136.333 80.5005 152.704 64.1604 152.704 44.0249C152.704 23.8896 136.333 7.55029 116.119 7.55029C95.9051 7.55035 79.5344 23.8896 79.5342 44.0249ZM159.704 44.0249C159.704 68.0446 140.181 87.5005 116.119 87.5005C111.371 87.5005 106.8 86.7392 102.521 85.3384C98.3595 86.7537 93.7507 87.6206 89.1113 87.6206C65.7068 87.6204 46.8683 68.0826 46.8682 44.1489C46.8682 20.2152 65.7067 0.67749 89.1113 0.677246C93.6786 0.677246 98.0826 1.4272 102.211 2.81201C106.579 1.34572 111.256 0.550304 116.119 0.550293C140.181 0.550293 159.704 20.0055 159.704 44.0249Z" fill="#FFB56D"/>
</g>
<path d="M208.202 104.539V125.975H204.716V104.539H208.202ZM204.518 98.8536C204.518 98.2593 204.683 97.7574 205.013 97.348C205.343 96.9386 205.838 96.7339 206.499 96.7339C207.159 96.7339 207.654 96.9386 207.984 97.348C208.328 97.7574 208.5 98.2593 208.5 98.8536C208.5 99.4216 208.328 99.9102 207.984 100.32C207.654 100.716 207.159 100.914 206.499 100.914C205.838 100.914 205.343 100.716 205.013 100.32C204.683 99.9102 204.518 99.4216 204.518 98.8536Z" fill="#6DB5FF"/>
<path d="M188.443 95.5454V125.975H184.937V95.5454H188.443ZM199.319 104.54L191.692 114.544L186.977 119.972L186.739 116.069L189.988 111.592L195.099 104.54H199.319ZM196.11 125.975L190.087 115.752L191.89 112.484L200.191 125.975H196.11Z" fill="#6DB5FF"/>
<path d="M178.152 104.539V125.975H174.665V104.539H178.152ZM174.467 98.8536C174.467 98.2593 174.632 97.7574 174.962 97.348C175.292 96.9386 175.788 96.7339 176.448 96.7339C177.108 96.7339 177.604 96.9386 177.934 97.348C178.277 97.7574 178.449 98.2593 178.449 98.8536C178.449 99.4216 178.277 99.9102 177.934 100.32C177.604 100.716 177.108 100.914 176.448 100.914C175.788 100.914 175.292 100.716 174.962 100.32C174.632 99.9102 174.467 99.4216 174.467 98.8536Z" fill="#6DB5FF"/>
<path d="M151.181 122.171L155.916 104.54H158.194L157.936 108.046L153.182 125.975H150.983L151.181 122.171ZM148.606 104.54L152.588 122.369L152.687 125.975H150.369L145.139 104.54H148.606ZM162.255 122.231L166.019 104.54H169.466L164.236 125.975H161.958L162.255 122.231ZM158.689 104.54L163.305 121.874L163.622 125.975H161.443L156.53 108.006L156.272 104.54H158.689Z" fill="#6DB5FF"/>
<path d="M141.326 122.963V125.975H125.2V123.34L133.145 112.82C134.122 111.526 134.868 110.43 135.383 109.532C135.898 108.62 136.255 107.808 136.453 107.095C136.651 106.369 136.75 105.629 136.75 104.876C136.75 103.925 136.598 103.067 136.295 102.301C135.991 101.522 135.548 100.901 134.967 100.439C134.386 99.9763 133.686 99.7451 132.867 99.7451C131.797 99.7451 130.919 99.9961 130.232 100.498C129.559 100.987 129.064 101.673 128.747 102.558C128.43 103.443 128.271 104.46 128.271 105.609H124.765C124.765 103.985 125.062 102.499 125.656 101.152C126.264 99.8046 127.168 98.7348 128.37 97.9423C129.572 97.1367 131.071 96.7339 132.867 96.7339C134.413 96.7339 135.733 97.0575 136.829 97.7046C137.939 98.3386 138.784 99.2367 139.365 100.399C139.96 101.548 140.257 102.895 140.257 104.44C140.257 105.286 140.138 106.144 139.9 107.016C139.676 107.874 139.359 108.733 138.949 109.591C138.553 110.45 138.084 111.295 137.543 112.127C137.001 112.959 136.42 113.778 135.799 114.583L129.4 122.963H141.326Z" fill="#6DB5FF"/>
<path d="M112.949 126.371C111.668 126.371 110.512 126.179 109.482 125.796C108.452 125.413 107.573 124.832 106.847 124.053C106.121 123.261 105.566 122.263 105.183 121.062C104.8 119.86 104.608 118.44 104.608 116.802V114.385C104.608 112.497 104.826 110.899 105.262 109.591C105.711 108.284 106.312 107.234 107.065 106.441C107.818 105.635 108.67 105.054 109.621 104.698C110.571 104.328 111.549 104.143 112.553 104.143C113.9 104.143 115.049 104.361 116 104.797C116.951 105.233 117.723 105.88 118.317 106.738C118.912 107.597 119.348 108.653 119.625 109.908C119.916 111.163 120.061 112.609 120.061 114.247V116.287H106.669V113.296H116.554V112.8C116.501 111.691 116.35 110.714 116.099 109.868C115.861 109.023 115.465 108.363 114.91 107.887C114.355 107.399 113.569 107.154 112.553 107.154C111.905 107.154 111.304 107.267 110.75 107.491C110.208 107.702 109.739 108.079 109.343 108.62C108.96 109.149 108.656 109.882 108.432 110.819C108.221 111.757 108.115 112.946 108.115 114.385V116.802C108.115 117.951 108.221 118.942 108.432 119.774C108.656 120.593 108.98 121.273 109.403 121.814C109.838 122.343 110.367 122.739 110.987 123.003C111.621 123.254 112.341 123.379 113.147 123.379C114.322 123.379 115.293 123.155 116.059 122.706C116.825 122.244 117.492 121.656 118.06 120.943L119.902 123.142C119.519 123.683 119.017 124.205 118.397 124.707C117.789 125.195 117.036 125.598 116.138 125.915C115.253 126.219 114.19 126.371 112.949 126.371Z" fill="#6DB5FF"/>
<path d="M95.6651 104.539H98.815V126.153C98.815 128.042 98.4848 129.6 97.8245 130.828C97.1773 132.057 96.2726 132.961 95.1104 133.542C93.9482 134.137 92.6076 134.434 91.0888 134.434C90.5473 134.434 89.8671 134.335 89.0483 134.137C88.2294 133.939 87.4106 133.635 86.5917 133.225C85.7729 132.829 85.0993 132.327 84.571 131.72L86.0172 129.283C86.77 130.049 87.5691 130.597 88.4143 130.927C89.2596 131.257 90.0652 131.423 90.8313 131.423C91.7426 131.423 92.535 131.257 93.2086 130.927C93.8821 130.597 94.4038 130.056 94.7736 129.303C95.1434 128.563 95.3283 127.573 95.3283 126.331V109.254L95.6651 104.539ZM83.3428 116.287V114.286C83.3428 112.516 83.5079 110.998 83.838 109.73C84.1682 108.449 84.6437 107.399 85.2644 106.58C85.8984 105.748 86.6578 105.134 87.5427 104.737C88.4276 104.341 89.4181 104.143 90.5143 104.143C91.6237 104.143 92.5812 104.368 93.3869 104.817C94.1925 105.266 94.8595 105.919 95.3878 106.778C95.9292 107.623 96.3519 108.653 96.6556 109.868C96.9726 111.07 97.1905 112.431 97.3094 113.949V116.624C97.1905 118.13 96.9726 119.483 96.6556 120.685C96.3519 121.887 95.9226 122.911 95.3679 123.756C94.8264 124.601 94.1529 125.248 93.3472 125.697C92.5416 126.146 91.5841 126.371 90.4747 126.371C89.3917 126.371 88.4143 126.166 87.5427 125.757C86.671 125.334 85.9182 124.707 85.2842 123.875C84.6635 123.029 84.1814 121.979 83.838 120.725C83.5079 119.457 83.3428 117.978 83.3428 116.287ZM86.8493 114.286V116.287C86.8493 117.476 86.9351 118.513 87.1068 119.397C87.2785 120.269 87.5427 120.995 87.8993 121.577C88.2691 122.144 88.7379 122.567 89.3058 122.844C89.8869 123.122 90.5803 123.261 91.386 123.261C92.3633 123.261 93.1623 123.023 93.7831 122.547C94.4038 122.072 94.8991 121.445 95.2689 120.665C95.6519 119.873 95.9557 119.021 96.1802 118.11V112.483C96.0481 111.81 95.8566 111.163 95.6057 110.542C95.3679 109.908 95.0576 109.347 94.6746 108.858C94.2916 108.356 93.8293 107.96 93.2878 107.669C92.7595 107.379 92.1388 107.234 91.4256 107.234C90.6199 107.234 89.9266 107.379 89.3455 107.669C88.7643 107.96 88.2889 108.396 87.9191 108.977C87.5493 109.558 87.2785 110.291 87.1068 111.176C86.9351 112.061 86.8493 113.098 86.8493 114.286Z" fill="#6DB5FF"/>
<path d="M73.884 122.31V110.681C73.884 109.835 73.7519 109.155 73.4877 108.64C73.2368 108.125 72.8538 107.749 72.3387 107.511C71.8368 107.273 71.2029 107.154 70.4369 107.154C69.6973 107.154 69.0567 107.306 68.5152 107.61C67.9869 107.914 67.5775 108.317 67.287 108.818C67.0096 109.32 66.8709 109.875 66.8709 110.483H63.3644C63.3644 109.717 63.5295 108.957 63.8597 108.204C64.2031 107.451 64.6917 106.771 65.3257 106.164C65.9596 105.543 66.719 105.054 67.6039 104.698C68.502 104.328 69.5058 104.143 70.6152 104.143C71.9359 104.143 73.1047 104.361 74.1217 104.797C75.1386 105.219 75.9377 105.913 76.5188 106.877C77.0999 107.841 77.3905 109.122 77.3905 110.72V121.299C77.3905 122.012 77.4433 122.772 77.549 123.577C77.6678 124.383 77.8329 125.077 78.0442 125.658V125.975H74.4188C74.2472 125.552 74.1151 124.991 74.0226 124.291C73.9302 123.577 73.884 122.917 73.884 122.31ZM74.4387 112.979L74.4783 115.554H72.0416C71.2095 115.554 70.4501 115.647 69.7633 115.831C69.0897 116.016 68.5086 116.287 68.02 116.644C67.5313 116.987 67.1549 117.416 66.8907 117.931C66.6398 118.446 66.5143 119.034 66.5143 119.695C66.5143 120.553 66.6332 121.24 66.8709 121.755C67.1087 122.257 67.4653 122.62 67.9407 122.844C68.4162 123.069 69.0171 123.181 69.7435 123.181C70.6284 123.181 71.4076 122.977 72.0812 122.567C72.7547 122.158 73.2764 121.662 73.6462 121.081C74.0292 120.5 74.2075 119.959 74.1811 119.457L74.9537 121.101C74.9009 121.616 74.7292 122.178 74.4387 122.785C74.1613 123.379 73.7717 123.954 73.2698 124.509C72.7679 125.05 72.1736 125.499 71.4868 125.856C70.8133 126.199 70.0539 126.371 69.2086 126.371C67.9671 126.371 66.8775 126.133 65.9398 125.658C65.0153 125.182 64.2955 124.482 63.7804 123.558C63.2654 122.633 63.0078 121.491 63.0078 120.13C63.0078 119.1 63.1861 118.149 63.5427 117.278C63.8993 116.406 64.4276 115.653 65.1276 115.019C65.8276 114.372 66.7058 113.87 67.7624 113.514C68.8322 113.157 70.0671 112.979 71.467 112.979H74.4387Z" fill="#6DB5FF"/>
<path d="M50.815 126.371C49.5339 126.371 48.3782 126.179 47.3481 125.796C46.3179 125.413 45.4396 124.832 44.7132 124.053C43.9868 123.261 43.4321 122.263 43.0491 121.062C42.6661 119.86 42.4746 118.44 42.4746 116.802V114.385C42.4746 112.497 42.6925 110.899 43.1284 109.591C43.5774 108.284 44.1783 107.234 44.9312 106.441C45.684 105.635 46.5358 105.054 47.4867 104.698C48.4377 104.328 49.415 104.143 50.4187 104.143C51.7659 104.143 52.9149 104.361 53.8658 104.797C54.8168 105.233 55.5894 105.88 56.1837 106.738C56.778 107.597 57.2139 108.653 57.4912 109.908C57.7818 111.163 57.9271 112.609 57.9271 114.247V116.287H44.5349V113.296H54.4205V112.8C54.3677 111.691 54.2158 110.714 53.9649 109.868C53.7272 109.023 53.3309 108.363 52.7762 107.887C52.2215 107.399 51.4357 107.154 50.4187 107.154C49.7716 107.154 49.1707 107.267 48.616 107.491C48.0745 107.702 47.6056 108.079 47.2094 108.62C46.8264 109.149 46.5226 109.882 46.2981 110.819C46.0868 111.757 45.9811 112.946 45.9811 114.385V116.802C45.9811 117.951 46.0868 118.942 46.2981 119.774C46.5226 120.593 46.8462 121.273 47.2688 121.814C47.7047 122.343 48.233 122.739 48.8537 123.003C49.4876 123.254 50.2074 123.379 51.0131 123.379C52.1885 123.379 53.1592 123.155 53.9253 122.706C54.6913 122.244 55.3582 121.656 55.9262 120.943L57.7686 123.142C57.3856 123.683 56.8837 124.205 56.2629 124.707C55.6554 125.195 54.9026 125.598 54.0045 125.915C53.1196 126.219 52.0564 126.371 50.815 126.371Z" fill="#6DB5FF"/>
<path d="M25.7858 109.116V125.975H22.2793V104.539H25.5877L25.7858 109.116ZM24.9339 114.445L23.5076 114.385C23.4944 112.919 23.6595 111.566 24.0028 110.324C24.3594 109.069 24.8613 107.98 25.5085 107.055C26.1688 106.131 26.9547 105.418 27.8659 104.916C28.7772 104.401 29.7876 104.143 30.897 104.143C31.7687 104.143 32.5611 104.288 33.2743 104.579C33.9875 104.856 34.595 105.305 35.0969 105.926C35.5988 106.547 35.9818 107.352 36.2459 108.343C36.5233 109.32 36.662 110.516 36.662 111.929V125.975H33.1554V111.889C33.1554 110.766 33.03 109.868 32.779 109.195C32.5413 108.508 32.1715 108.013 31.6696 107.709C31.181 107.392 30.5602 107.234 29.8074 107.234C29.1206 107.234 28.4801 107.425 27.8858 107.808C27.2914 108.191 26.7697 108.719 26.3207 109.393C25.8849 110.067 25.5415 110.839 25.2905 111.711C25.0528 112.569 24.9339 113.481 24.9339 114.445Z" fill="#6DB5FF"/>
<path d="M15.5159 104.539V125.975H12.0292V104.539H15.5159ZM11.8311 98.8536C11.8311 98.2593 11.9961 97.7574 12.3263 97.348C12.6565 96.9386 13.1518 96.7339 13.8121 96.7339C14.4725 96.7339 14.9678 96.9386 15.2979 97.348C15.6413 97.7574 15.813 98.2593 15.813 98.8536C15.813 99.4216 15.6413 99.9102 15.2979 100.32C14.9678 100.716 14.4725 100.914 13.8121 100.914C13.1518 100.914 12.6565 100.716 12.3263 100.32C11.9961 99.9102 11.8311 99.4216 11.8311 98.8536Z" fill="#6DB5FF"/>
<path d="M4.9867 95.5454V125.975H1.5V95.5454H4.9867Z" fill="#6DB5FF"/>
<defs>
<clipPath id="clip0_2831_2626">
<rect width="208" height="88" fill="white" transform="translate(1)"/>
</clipPath>
</defs>
</svg>
