<svg width="8" height="8" viewBox="0 0 8 8" fill="none" xmlns="http://www.w3.org/2000/svg">
<path d="M1.08358 7.75C0.854411 7.75 0.65823 7.6684 0.495036 7.50521C0.331841 7.34201 0.250244 7.14583 0.250244 6.91667V1.08333C0.250244 0.854167 0.331841 0.657986 0.495036 0.494792C0.65823 0.331597 0.854411 0.25 1.08358 0.25H4.00025V1.08333H1.08358V6.91667H6.91691V4H7.75025V6.91667C7.75025 7.14583 7.66865 7.34201 7.50545 7.50521C7.34226 7.6684 7.14608 7.75 6.91691 7.75H1.08358ZM3.04191 5.54167L2.45858 4.95833L6.33358 1.08333H4.83358V0.25H7.75025V3.16667H6.91691V1.66667L3.04191 5.54167Z" fill="#E4E2E3"/>
</svg>
