<svg width="7" height="7" viewBox="0 0 7 7" fill="none" xmlns="http://www.w3.org/2000/svg">
<path d="M1.45833 6.125C1.29792 6.125 1.16059 6.06788 1.04635 5.95365C0.932118 5.83941 0.875 5.70208 0.875 5.54167V1.45833C0.875 1.29792 0.932118 1.16059 1.04635 1.04635C1.16059 0.932118 1.29792 0.875 1.45833 0.875H3.5V1.45833H1.45833V5.54167H5.54167V3.5H6.125V5.54167C6.125 5.70208 6.06788 5.83941 5.95365 5.95365C5.83941 6.06788 5.70208 6.125 5.54167 6.125H1.45833ZM2.82917 4.57917L2.42083 4.17083L5.13333 1.45833H4.08333V0.875H6.125V2.91667H5.54167V1.86667L2.82917 4.57917Z" fill="#E4E2E3"/>
</svg>
