<svg width="18" height="21" viewBox="0 0 18 21" fill="none" xmlns="http://www.w3.org/2000/svg">
<path d="M8 17.925V11.075L2 7.6V14.45L8 17.925ZM10 17.925L16 14.45V7.6L10 11.075V17.925ZM9 9.35L14.925 5.925L9 2.5L3.075 5.925L9 9.35ZM1 16.2C0.683333 16.0167 0.4375 15.775 0.2625 15.475C0.0875 15.175 0 14.8417 0 14.475V6.525C0 6.15833 0.0875 5.825 0.2625 5.525C0.4375 5.225 0.683333 4.98333 1 4.8L8 0.775C8.31667 0.591667 8.65 0.5 9 0.5C9.35 0.5 9.68333 0.591667 10 0.775L17 4.8C17.3167 4.98333 17.5625 5.225 17.7375 5.525C17.9125 5.825 18 6.15833 18 6.525V14.475C18 14.8417 17.9125 15.175 17.7375 15.475C17.5625 15.775 17.3167 16.0167 17 16.2L10 20.225C9.68333 20.4083 9.35 20.5 9 20.5C8.65 20.5 8.31667 20.4083 8 20.225L1 16.2Z" fill="#C9C6BD"/>
</svg>
