<svg width="101" height="103" viewBox="0 0 101 103" fill="none" xmlns="http://www.w3.org/2000/svg">
<mask id="mask0_62803_53515" style="mask-type:luminance" maskUnits="userSpaceOnUse" x="0" y="0" width="101" height="103">
<path d="M50.5 102.261C78.3904 102.261 101 79.3692 101 51.1306C101 22.8919 78.3904 0 50.5 0C22.6096 0 0 22.8919 0 51.1306C0 79.3692 22.6096 102.261 50.5 102.261Z" fill="white"/>
</mask>
<g mask="url(#mask0_62803_53515)">
<path d="M0.204664 90.5184C0.18972 86.3441 -0.441346 74.7835 1.25264 77.1454C3.18043 79.8333 5.68444 83.562 7.93059 85.9223C10.743 88.8775 13.3997 90.7846 17.1397 93.2777C19.8901 95.1111 21.638 96.0458 25.684 97.1215C29.0576 98.0184 33.0585 98.0638 36.5017 97.8801C40.3783 97.6733 44.6197 97.7228 48.3311 97.5448C52.3897 97.3501 56.8265 95.7615 60.6104 94.399C64.1138 93.1375 66.9361 91.3466 69.994 88.9306C73.0423 86.5221 75.6737 84.5505 77.8458 81.2214C79.538 78.628 82.0527 76.1336 81.2546 72.938C77.8596 73.6517 73.7382 72.8571 71.1015 70.4267C67.9871 67.556 67.9944 62.2689 71.4032 60.0137C73.8344 58.4053 78.2947 58.8164 78.4102 63.4231C73.9265 61.4761 74.0468 67.1193 77.4356 66.8196C81.1084 66.4948 80.3078 61.6972 79.5198 58.9096C78.6005 55.6574 74.7396 54.0874 71.7185 55.0547C68.4116 56.1134 64.5289 56.1657 61.2932 55.0112C58.5471 54.0313 55.8667 52.9453 53.3089 51.3502C49.8337 49.1831 47.0518 47.6456 44.2029 43.3709C42.3248 40.553 41.2014 37.5592 40.2741 34.14C39.138 29.9511 33.4244 30.2807 32.4805 35.0812C31.7773 38.6578 32.0229 42.6118 34.4596 44.9777C36.6568 47.1112 38.6699 48.6925 39.5089 51.6575C39.9486 53.2111 39.9943 54.6526 39.1394 56.5451C38.1423 58.7526 36.3574 60.3269 34.9986 62.0999C32.7716 65.0055 33.755 69.1097 34.1893 72.4547C34.5596 75.3065 38.8563 75.6453 36.1056 79.5228C34.4155 81.9052 32.4143 83.6809 29.0277 81.2662C27.5884 80.2399 28.7284 78.0136 27.8835 76.6594C26.2067 73.9718 28.1871 77.9309 28.0984 67.3913C28.0795 65.1466 25.6151 63.7077 23.9007 63.4052C20.4819 66.1516 29.5235 67.8717 24.4264 69.5697C21.9297 70.4014 23.5099 75.4575 24.7838 77.3793C25.7809 78.8835 23.0897 77.6396 25.4379 82.5854C27.0697 86.0223 23.6396 85.0787 20.7832 84.4615C18.4348 83.9541 14.8024 84.3617 14.1304 80.3682C13.5292 76.7956 12.4128 73.2867 13.0344 69.6363C13.6405 66.0764 11.5004 63.5856 9.44295 60.8053C7.46217 58.1285 5.9009 55.2831 4.42946 52.1902C2.8596 48.8905 1.72549 47.3135 1.11892 43.2137C0.0480718 35.9758 2.35025 32.6464 1.19509 36.4419C-0.925402 43.4091 -0.289015 32.6169 2.72471 36.6405C6.07362 41.1116 3.31428 31.5091 1.55541 29.7034C0.471236 28.5903 -0.249361 22.3653 0.023033 18.636C0.518349 11.8549 -1.89654 0.148736 4.49763 0.148736C5.82269 0.148736 4.17984 0.0552611 4.17984 0.0552611C2.42981 1.55947 3.42504 5.23019 4.95216 7.02596C6.22469 8.52234 7.78512 4.86396 8.59584 3.99324C10.4223 2.03164 11.7124 -0.880754 13.9754 0.0552611C14.802 0.397116 13.353 3.72303 16.326 2.03091C20.984 -0.620225 24.0099 -1.32771 21.0464 2.88421C19.3974 5.22793 15.6114 8.67138 16.7425 11.4121C19.0425 9.37515 21.6751 6.75163 24.3103 4.56276C27.134 2.21737 29.5371 0.0555 33.6807 0.0552993C35.4418 0.0552143 39.1711 0.0028909 38.9639 0.0552611C37.1822 0.505511 38.2955 6.04651 40.3481 5.34783C42.528 4.60588 43.1294 2.38829 44.7526 0.290614C45.2943 -0.409439 47.1492 -0.0104543 48.23 0.0552611C50.2364 0.17727 50.4435 -0.475604 51.2964 0.887414C52.5143 2.83388 52.9433 5.98943 49.2002 8.21751C47.6902 9.11634 47.2483 10.0295 48.0245 11.4335C49.4711 14.0503 49.542 17.3254 48.9174 20.3619C48.1729 23.9809 47.14 25.8869 50.5217 31.2912C51.1946 32.3665 59.5897 40.8487 50.0648 34.5239C47.2946 32.6844 45.5434 29.9826 44.3072 26.9872C43.2358 24.3913 41.7683 21.7023 42.4331 18.9082C42.8514 17.1503 41.3922 16.3692 40.474 15.1644C39.1745 15.6182 37.6255 15.8159 37.4538 17.8493C37.2341 20.4504 36.9858 23.7947 38.901 25.1362C41.6645 27.072 42.4009 30.3825 44.4782 32.5254C46.615 34.7297 51.2975 35.8779 50.8992 38.9572C50.5564 41.6073 53.0465 42.0837 55.0251 42.6027C57.8406 43.3413 58.7317 43.6187 61.886 43.985C65.5473 44.4101 69.0563 45.1663 72.5567 44.6456C76.7708 44.0188 79.9801 42.0681 83.4826 40.0871C86.5268 38.3653 87.8758 35.0206 89.2023 31.9892C90.501 29.021 90.7246 25.6493 90.5452 22.4016C90.3405 18.6966 88.7892 15.1599 86.5824 12.1571C83.5017 7.96501 78.114 7.27186 73.2118 6.4417C69.2913 5.77779 65.5431 7.56285 62.9275 10.5653C60.2337 13.6574 56.6463 16.8512 58.5743 21.8931C59.8703 25.2822 59.9357 28.5992 63.1269 31.3903C64.7584 32.8174 66.7392 34.2521 68.7421 34.5161C71.3185 34.8557 74.082 34.637 76.5279 33.306C79.4998 31.6887 81.6232 28.8492 82.1199 25.0102C82.5774 21.4745 80.6083 17.1045 77.584 16.2194C74.3017 15.2588 69.9391 14.4636 67.9098 18.178C67.2695 19.3499 66.7964 20.0094 66.789 21.3534C66.7705 24.709 70.4028 26.0882 69.7556 24.0054C68.4567 19.8247 73.8603 18.9399 75.7412 21.9045C77.767 25.0973 76.0891 28.2376 72.9419 29.5656C69.6695 30.9463 65.7591 28.611 64.2846 25.4606C62.854 22.4041 63.0921 18.5398 65.5651 15.3378C67.8033 12.4399 71.2113 11.0151 74.8601 11.3804C78.9565 11.7905 81.0687 12.8433 83.1991 15.2684C86.7469 19.3068 87.0524 22.6517 86.1816 27.377C85.5435 30.8397 83.238 33.8833 79.2211 36.6688C76.6469 38.454 69.8723 39.6326 65.6563 37.8539C62.3061 36.4403 59.812 33.5095 57.7246 30.6595C54.1744 25.8122 52.9954 18.5408 54.5871 13.5211C55.646 10.1821 58.0744 7.15597 60.7965 4.32776C63.3212 1.70469 66.7813 0.459957 70.6703 0.354827C74.2964 0.256801 79.2806 0.422652 82.3953 2.52848C85.6206 4.70908 89.3251 7.00829 91.4541 10.4028C92.5269 12.1133 95.6023 12.622 93.8205 8.51534C92.4613 5.38278 84.8481 1.7794 87.8832 0.459321C89.9906 -0.457228 93.4943 -0.0438836 95.9215 -0.0438836C97.4136 -0.0438836 100.693 -0.265715 100.692 1.245L100.626 101.986C98.1056 101.97 93.4575 104.443 93.0639 101.922C92.5766 98.7998 92.8776 93.6354 91.8468 91.8281C89.0242 93.9844 86.8262 96.6565 85.3992 99.9671C83.8767 103.499 74.6541 101.555 73.2015 102.079C69.7929 102.166 62.8621 102.112 67.3452 101.181C70.991 100.423 73.6762 97.0402 76.8152 94.855C79.7051 92.8431 82.041 90.033 83.893 87.0721C85.739 84.1207 87.1264 80.3991 86.423 76.9301C84.6803 78.759 82.8991 81.8301 81.2729 84.2504C78.86 87.8413 74.8662 91.2317 72.715 93.0501C70.1632 95.2072 67.9548 97.3126 64.3641 98.9287C60.8131 100.527 58.5972 101.399 55.1176 101.932C36.8135 102.033 18.509 101.967 0.204664 101.986V90.5184ZM17.9774 80.7627C15.0196 76.9767 16.9763 82.479 18.508 82.2864L17.9774 80.7627ZM97.1027 60.3341C97.4737 57.3187 98.2278 53.7387 95.3881 51.6695C94.5891 52.9062 92.9503 53.5388 93.7639 55.987C94.4952 58.1877 95.2016 60.2351 96.9014 61.9779C97.1375 61.4618 97.0706 60.882 97.1027 60.3341ZM15.3057 54.3611C15.3774 50.8269 14.4649 45.0974 11.3662 44.7773C8.28623 44.4593 11.0472 49.7876 12.051 51.6974C12.8636 53.2437 15.3057 58.9442 15.3057 56.4185V54.3611ZM34.3359 11.7772C34.3361 9.1935 34.1397 -1.0274 31.9981 3.59332C30.8719 6.02324 30.5728 12.57 33.2796 12.7459C33.8496 12.7829 34.2419 12.302 34.3359 11.7772ZM25.8302 10.9368C25.0585 10.6365 25.7484 16.402 25.8302 10.9368V10.9368Z" fill="#FFB56D"/>
</g>
</svg>
