<svg width="24" height="23" viewBox="0 0 24 23" fill="none" xmlns="http://www.w3.org/2000/svg">
<path d="M12 16.475L13.475 15H15.5V12.975L16.975 11.5L15.5 10.025V8.00001H13.475L12 6.52501L10.525 8.00001H8.50001V10.025L7.02501 11.5L8.50001 12.975V15H10.525L12 16.475ZM12 22.8L8.65001 19.5H4.00001V14.85L0.700012 11.5L4.00001 8.15001V3.50001H8.65001L12 0.200012L15.35 3.50001H20V8.15001L23.3 11.5L20 14.85V19.5H15.35L12 22.8ZM12 20L14.5 17.5H18V14L20.5 11.5L18 9.00001V5.50001H14.5L12 3.00001L9.50001 5.50001H6.00001V9.00001L3.50001 11.5L6.00001 14V17.5H9.50001L12 20Z" fill="#CCE7FF"/>
</svg>
